<?xml version="1.0" encoding="iso-8859-1"?>
<!-- Generator: Adobe Illustrator 19.0.0, SVG Export Plug-In . SVG Version: 6.00 Build 0)  -->
<svg version="1.1" id="Layer_1" xmlns="http://www.w3.org/2000/svg" xmlns:xlink="http://www.w3.org/1999/xlink" x="0px" y="0px"
	 viewBox="0 0 392.436 392.436" style="enable-background:new 0 0 392.436 392.436;" xml:space="preserve">
<polygon style="fill:#FFC10D;" points="149.543,370.909 249.616,370.909 199.515,214.465 "/>
<g>
	<path style="fill:#194F82;" d="M128.404,212.008c4.008,4.396,12.024,3.879,15.451,0c4.267-4.267,4.267-11.119,0-15.451
		c-14.61-14.61-22.626-33.939-22.626-54.562s8.016-40.016,22.626-54.562c4.267-4.267,4.267-11.119,0-15.451
		c-4.267-4.267-11.119-4.267-15.451,0c-18.683,18.683-28.962,43.572-28.962,70.012S109.657,193.261,128.404,212.008z"/>
	<path style="fill:#194F82;" d="M104.679,50.457c4.267-4.267,4.267-11.119,0-15.451c-4.267-4.267-11.119-4.267-15.451,0
		c-58.958,58.958-58.958,154.958,0,213.915c4.719,4.396,10.925,4.202,15.451,0c4.267-4.267,4.267-11.119,0-15.451
		C54.19,183.111,54.19,100.945,104.679,50.457z"/>
	<path style="fill:#194F82;" d="M72.808,18.651c4.267-4.267,4.267-11.119,0-15.451c-4.267-4.267-11.119-4.267-15.451,0
		c-76.477,76.477-76.477,201.051,0,277.592c4.461,4.267,11.119,4.008,15.451,0c4.267-4.267,4.267-11.119,0-15.451
		C4.8,197.398,4.8,86.659,72.808,18.651z"/>
	<path style="fill:#194F82;" d="M271.273,141.996c0,20.622-8.016,40.016-22.626,54.562c-4.267,4.267-4.267,11.119,0,15.451
		c3.426,3.879,11.442,4.396,15.451,0c18.683-18.683,28.962-43.572,28.962-70.012s-10.279-51.329-28.962-70.012
		c-4.267-4.267-11.119-4.267-15.451,0c-4.267,4.267-4.267,11.119,0,15.451C263.192,102.044,271.273,121.438,271.273,141.996z"/>
	<path style="fill:#194F82;" d="M303.273,35.006c-4.267-4.267-11.119-4.267-15.451,0c-4.267,4.267-4.267,11.119,0,15.451
		c50.489,50.489,50.489,132.59,0,183.079c-4.267,4.267-4.267,11.119,0,15.451c4.59,4.202,10.667,4.396,15.451,0
		C362.23,189.964,362.23,94.093,303.273,35.006z"/>
	<path style="fill:#194F82;" d="M335.079,3.2c-4.267-4.267-11.119-4.267-15.451,0c-4.267,4.267-4.267,11.119,0,15.451
		c68.008,68.008,68.008,178.747,0,246.756c-4.267,4.267-4.267,11.119,0,15.451c4.331,4.008,10.99,4.267,15.451,0
		C411.556,204.251,411.556,79.741,335.079,3.2z"/>
	<path style="fill:#194F82;" d="M213.737,186.925c18.683-6.4,32.129-24.113,32.129-44.994c0-26.246-21.333-47.58-47.58-47.58
		s-47.58,21.333-47.58,47.58c0,21.721,14.545,39.952,34.457,45.64l-60.962,190.642c-2.457,6.206,2.78,14.222,10.343,14.222H264.42
		c7.499,0,12.606-7.24,10.343-14.222L213.737,186.925z M172.558,141.996c0-14.222,11.507-25.794,25.794-25.794
		c14.287,0,25.794,11.507,25.794,25.794c0,14.287-11.507,25.794-25.794,25.794C184.065,167.79,172.558,156.283,172.558,141.996z
		 M149.608,370.78l6.012-18.747h26.828c6.012,0,10.925-4.848,10.925-10.925c0-6.012-4.848-10.925-10.925-10.925h-19.846
		l6.982-21.786h34.715c6.012,0,10.925-4.848,10.925-10.925c0-6.012-4.848-10.925-10.925-10.925h-27.733l23.079-72.145
		l49.972,156.444H149.608V370.78z"/>
</g>
<circle style="fill:#56ACE0;" cx="198.352" cy="141.996" r="25.794"/>
<g>
</g>
<g>
</g>
<g>
</g>
<g>
</g>
<g>
</g>
<g>
</g>
<g>
</g>
<g>
</g>
<g>
</g>
<g>
</g>
<g>
</g>
<g>
</g>
<g>
</g>
<g>
</g>
<g>
</g>
</svg>
